<svg width="20" height="21" viewBox="0 0 20 21" fill="none" xmlns="http://www.w3.org/2000/svg">
<path d="M0 10.3125C0 4.78965 4.47715 0.3125 10 0.3125C15.5228 0.3125 20 4.78965 20 10.3125C20 15.8353 15.5228 20.3125 10 20.3125C4.47715 20.3125 0 15.8353 0 10.3125Z" fill="white"/>
<path d="M10.4913 13.8125C6.73298 13.8125 4.58932 11.1849 4.5 6.8125H6.38257C6.44441 10.0217 7.83229 11.3811 8.93161 11.6613V6.8125H10.7042V9.58027C11.7898 9.46115 12.9304 8.19989 13.3151 6.8125H15.0878C14.9428 7.53204 14.6538 8.21333 14.2388 8.81375C13.8238 9.41417 13.2919 9.92082 12.6761 10.302C13.3634 10.6503 13.9705 11.1432 14.4573 11.7484C14.944 12.3535 15.2994 13.057 15.5 13.8125H13.5487C13.3687 13.1563 13.0027 12.5689 12.4967 12.1239C11.9907 11.6789 11.3672 11.3961 10.7042 11.311V13.8125H10.4913Z" fill="black"/>
</svg>
