<svg width="20" height="21" viewBox="0 0 20 21" fill="none" xmlns="http://www.w3.org/2000/svg">
<path d="M0 10.3125C0 4.78965 4.47715 0.3125 10 0.3125C15.5228 0.3125 20 4.78965 20 10.3125C20 15.8353 15.5228 20.3125 10 20.3125C4.47715 20.3125 0 15.8353 0 10.3125Z" fill="white"/>
<path d="M14 6.61361L12.4973 14.4586C12.4973 14.4586 12.287 15.0026 11.7094 14.7417L8.24229 11.9888L8.22621 11.9807C8.69454 11.5452 12.3262 8.16383 12.4849 8.01056C12.7306 7.77318 12.5781 7.63186 12.2928 7.81118L6.9284 11.339L4.85882 10.6179C4.85882 10.6179 4.53313 10.4979 4.5018 10.2371C4.47005 9.97577 4.86954 9.83445 4.86954 9.83445L13.3066 6.40697C13.3066 6.40697 14 6.09146 14 6.61361Z" fill="black"/>
</svg>
