<svg width="20" height="21" viewBox="0 0 20 21" fill="none" xmlns="http://www.w3.org/2000/svg">
<path fill-rule="evenodd" clip-rule="evenodd" d="M10 0.3125C4.47715 0.3125 0 4.78965 0 10.3125C0 15.8353 4.47715 20.3125 10 20.3125C15.5228 20.3125 20 15.8353 20 10.3125C20 4.78965 15.5228 0.3125 10 0.3125ZM13.1188 11.7089C13.3812 11.4466 13.4187 11.0717 13.1938 10.6969C13.0064 10.3971 12.6691 10.2472 12.2943 10.3221C12.1443 10.3596 11.9944 10.4346 11.8445 10.547C10.6826 11.3341 9.10841 11.2966 7.94651 10.5095L7.72163 10.3971C7.30934 10.2097 6.89706 10.2847 6.67218 10.6595C6.40981 11.0343 6.44729 11.4466 6.78462 11.7839C6.81117 11.8104 6.83772 11.8323 6.86261 11.8528C6.90798 11.8901 6.94781 11.9229 6.97202 11.9713L7.0095 12.0088C7.53423 12.421 8.1714 12.6834 8.99597 12.7959L8.50872 13.2831L7.23439 14.5574C7.12194 14.6699 6.97202 14.8573 6.97202 15.1196C6.97202 15.457 7.15942 15.7943 7.49675 15.9442C7.60919 16.0192 7.72163 16.0192 7.83407 16.0192C8.02147 16.0192 8.24636 15.9442 8.39628 15.7568L9.85802 14.2951C9.8955 14.2576 9.8955 14.2576 9.8955 14.2576C9.8955 14.2576 9.93298 14.2576 9.93298 14.2951C10.0829 14.4637 10.2422 14.623 10.4015 14.7823C10.5608 14.9416 10.7201 15.1009 10.87 15.2696L11.3198 15.7193C11.5072 15.9067 11.6571 15.9817 11.882 15.9817C12.2193 16.0192 12.5941 15.7943 12.744 15.457C12.8939 15.1571 12.819 14.7823 12.5566 14.5574C12.433 14.4339 12.3095 14.3062 12.1845 14.1772C11.9306 13.9148 11.6711 13.6468 11.3947 13.3955L10.7576 12.7584C11.0949 12.7209 11.4697 12.6459 11.807 12.496C12.3692 12.3086 12.7815 12.0462 13.1188 11.7089ZM12.819 7.77346C12.819 9.38512 11.5072 10.6595 9.8955 10.6595C9.10841 10.6595 8.39628 10.3596 7.87155 9.75992C7.30934 9.19772 7.0095 8.48559 7.0095 7.6985C7.04698 6.12432 8.32132 4.8125 9.93298 4.8125C10.6826 4.8125 11.3947 5.11235 11.9569 5.67455C12.5191 6.23676 12.819 6.98637 12.819 7.77346ZM9.07093 6.91141C9.29581 6.68653 9.59565 6.57408 9.8955 6.57408C10.5701 6.57408 11.0574 7.09881 11.0574 7.73598C11.0574 8.41063 10.5327 8.89787 9.8955 8.89787C9.22085 8.89787 8.73361 8.37315 8.73361 7.73598C8.73361 7.43614 8.84604 7.13629 9.07093 6.91141Z" fill="white"/>
</svg>
