<svg width="22" height="22" viewBox="0 0 22 22" fill="none" xmlns="http://www.w3.org/2000/svg">
<path d="M8.02354 2.78448H2.94119L1.85884 3.11312L1.38825 3.86429L1.24707 4.80326V18.9817L1.38825 19.7798L2.00001 20.3432L2.94119 20.7188H18.4235L19.1765 20.3432L19.7882 19.7798L20.0235 18.9817V13.9112M11.3177 13.9112L6.84707 15.2258L8.02354 10.7657M11.3177 13.9112L8.02354 10.7657M11.3177 13.9112L19.7882 5.36664M8.02354 10.7657L16.5412 2.26805M16.5412 2.26805L19.7882 5.36664M16.5412 2.26805L17.8118 0.953492L18.3765 0.71875H18.9882L19.553 0.953492L21.2471 2.73753V3.20701L21.1059 3.81734L20.7765 4.28683L19.7882 5.36664" stroke="black"/>
</svg>
