<svg width="19" height="22" viewBox="0 0 19 22" fill="none" xmlns="http://www.w3.org/2000/svg">
<path d="M6 16.2456H3C1.46061 16.3176 0.5 15.2461 0.5 14.2456C0.5 13.2451 1.55231 11.45 3 11.7456C3.77778 5.36998 6 1.24609 9.5 1.24561C13 1.24512 16.2235 5.87271 16 11.7456C17.4287 12.1234 18 13.7446 18 14.2451C18 14.7456 17.7705 15.772 16.5 16.2456C16.5 16.2456 13 16.2451 12.5 16.2456M6 16.2456C5.5 18.2451 6.79948 20.5079 9.5 20.7456C12.2005 20.9833 13.6759 16.4776 12.5 16.2456M6 16.2456H12.5" stroke="black"/>
</svg>
