<svg width="97" height="36" viewBox="0 0 97 36" fill="none" xmlns="http://www.w3.org/2000/svg">
<path d="M0 13.2194H89.1338L89.9827 10.4877L96.7738 17.9998L89.9827 25.5119L89.1338 22.7803H0L5.09336 17.9998L0 13.2194Z" fill="#3D3BFF"/>
<path d="M15.6771 8.44897C15.5566 7.00725 15.0681 5.88802 14.2116 5.09128C13.355 4.29454 12.3044 3.89616 11.0597 3.89616C10.1496 3.89616 9.35323 4.10484 8.67065 4.52218C7.99477 4.93952 7.46611 5.51336 7.08467 6.2437C6.70992 6.97405 6.52255 7.80399 6.52255 8.73352C6.52255 9.51129 6.65304 10.18 6.91403 10.7396C7.1817 11.2897 7.52299 11.7497 7.93789 12.1197C8.35279 12.4801 8.78776 12.7789 9.24281 13.016C9.69786 13.2436 10.1161 13.4286 10.4975 13.5709L12.5854 14.3676C12.9655 14.509 13.3759 14.6887 13.8167 14.9066H6.70011C6.26024 14.5331 5.86646 14.121 5.51876 13.6705C4.5819 12.4564 4.11346 10.8676 4.11346 8.90425C4.11346 7.27283 4.42464 5.85008 5.04699 4.636C5.67602 3.41243 6.5192 2.46393 7.57653 1.79049C8.64054 1.10757 9.82835 0.766113 11.14 0.766113C12.465 0.766113 13.6427 1.10283 14.6733 1.77627C15.7038 2.44022 16.5203 3.35078 17.1225 4.50795C17.7315 5.66512 18.0527 6.97879 18.0862 8.44897H15.6771Z" fill="black"/>
<path d="M83.2068 14.9066V4.29454H89.6712V1.16448H74.253V4.29454H80.7174V14.9066H83.2068Z" fill="black"/>
<path d="M70.3926 14.9066C70.4248 14.8276 70.4561 14.7475 70.4863 14.6664C70.9815 13.3385 71.2291 11.8161 71.2291 10.0994C71.2291 8.38257 70.9815 6.85075 70.4863 5.50387C69.9911 4.157 69.2282 3.09942 68.1977 2.33114C67.1671 1.55337 65.8488 1.16448 64.2428 1.16448H57.2966V14.9066H59.786V4.29454H64.1625C65.2733 4.29454 66.1667 4.5364 66.8426 5.02014C67.5185 5.49439 68.0103 6.16782 68.3181 7.04044C68.626 7.91306 68.7799 8.9327 68.7799 10.0994C68.7799 11.266 68.626 12.2714 68.3181 13.1156C68.0475 13.8659 67.6254 14.4629 67.0519 14.9066H70.3926Z" fill="black"/>
<path d="M50.106 14.9066L46.546 1.16448H43.9763L40.4163 14.9066H42.8936L45.1809 5.7742H45.3415L47.6287 14.9066H50.106Z" fill="black"/>
<path d="M30.2897 14.9066V4.29454H36.7541V1.16448H21.3359V4.29454H27.8003V14.9066H30.2897Z" fill="black"/>
<path d="M10.6103 20.2093C11.0408 20.4633 11.5029 20.691 11.9966 20.8922L14.5262 21.9166C15.2489 22.2011 15.9214 22.5331 16.5438 22.9125C17.1661 23.2919 17.668 23.7851 18.0495 24.3921C18.4309 24.9992 18.6216 25.7864 18.6216 26.7539C18.6216 27.8162 18.4008 28.7458 17.9591 29.5425C17.5175 30.3298 16.9185 30.9463 16.1624 31.3921C15.4062 31.8284 14.553 32.0465 13.6027 32.0465C12.7863 32.0465 12.0234 31.8758 11.3141 31.5344C10.6114 31.1834 10.0292 30.6522 9.56748 29.9409C9.11243 29.22 8.85145 28.3095 8.78453 27.2092H6.21483C6.29514 28.8027 6.63977 30.2017 7.24873 31.4063C7.86439 32.6109 8.70757 33.5499 9.77827 34.2234C10.8557 34.8968 12.1305 35.2335 13.6027 35.2335C15.182 35.2335 16.5237 34.8588 17.6279 34.1095C18.7387 33.3602 19.5819 32.3501 20.1574 31.0791C20.7396 29.8081 21.0307 28.3853 21.0307 26.8108C21.0307 25.445 20.8333 24.2926 20.4385 23.3535C20.0437 22.4145 19.5418 21.6462 18.9328 21.0487C18.6212 20.7346 18.3015 20.4548 17.9738 20.2093H10.6103Z" fill="black"/>
<path d="M30.4638 20.2093V34.7213H32.9532V20.2093H30.4638Z" fill="black"/>
<path d="M42.8508 20.2093L39.0913 34.7213H41.7012L43.7679 26.4694H52.0814L54.1481 34.7213H56.758L52.9985 20.2093H50.5135L51.2975 23.3393H44.5518L45.3358 20.2093H42.8508Z" fill="black"/>
<path d="M59.9601 20.2093V34.7213H62.4495V23.3393H66.9464C67.1245 23.3393 67.299 23.3346 67.47 23.3253L71.8047 34.7213H74.6956L70.0518 22.7062C70.3426 22.5659 70.6158 22.4023 70.8712 22.2153C71.5862 21.6854 72.1723 21.0167 72.6295 20.2093H59.9601Z" fill="black"/>
<path d="M83.3809 20.2093V34.7213H85.8703V20.2093H83.3809Z" fill="black"/>
<path d="M6.65875 14.9066H13.7614L18.2006 20.2093H10.654L6.65875 14.9066Z" fill="black"/>
<path d="M27.9668 14.9066H30.1863L32.8498 20.2093H30.6303L27.9668 14.9066Z" fill="black"/>
<path d="M40.3964 14.9066H42.616L45.2795 20.2093H43.0599L40.3964 14.9066Z" fill="black"/>
<path d="M47.943 14.9066H50.1626L52.8261 20.2093H50.6065L47.943 14.9066Z" fill="black"/>
<path d="M80.7928 14.9066H83.0124L85.6759 20.2093H83.4563L80.7928 14.9066Z" fill="black"/>
<path d="M57.2653 14.9066H59.9288L63.0362 20.2093H59.9288L57.2653 14.9066Z" fill="black"/>
<path d="M67.0314 14.9066H70.3735L72.6359 20.2093H70.1388L67.0314 14.9066Z" fill="black"/>
</svg>
