<svg width="73" height="27" viewBox="0 0 73 27" fill="none" xmlns="http://www.w3.org/2000/svg">
<path d="M0 9.89394H67.2368L67.8772 7.83333L73 13.5L67.8772 19.1667L67.2368 17.1061H0L3.84211 13.5L0 9.89394Z" fill="white"/>
<path d="M11.8258 6.29545C11.7349 5.20791 11.3664 4.36364 10.7203 3.76263C10.0742 3.16162 9.28162 2.86111 8.3427 2.86111C7.65618 2.86111 7.05548 3.01852 6.54059 3.33333C6.03074 3.64815 5.63196 4.08102 5.34422 4.63194C5.06154 5.18287 4.9202 5.80892 4.9202 6.5101C4.9202 7.0968 5.01863 7.60122 5.2155 8.02336C5.41742 8.43834 5.67486 8.78535 5.98784 9.06439C6.30081 9.33628 6.62893 9.56166 6.97219 9.74053C7.31545 9.91225 7.63094 10.0518 7.91868 10.1591L9.49364 10.7601C9.78034 10.8668 10.0899 11.0023 10.4224 11.1667H5.05414C4.72233 10.8849 4.42528 10.5741 4.163 10.2342C3.45629 9.31839 3.10293 8.11995 3.10293 6.63889C3.10293 5.40825 3.33766 4.33502 3.80712 3.41919C4.28163 2.49621 4.91767 1.78072 5.71525 1.27273C6.51787 0.757576 7.41388 0.5 8.40328 0.5C9.40277 0.5 10.2912 0.753998 11.0686 1.26199C11.846 1.76284 12.4618 2.4497 12.9161 3.3226C13.3755 4.1955 13.6178 5.18645 13.6431 6.29545H11.8258Z" fill="black"/>
<path d="M62.7659 11.1667V3.16162H67.6422V0.800505H56.0117V3.16162H60.8881V11.1667H62.7659Z" fill="black"/>
<path d="M53.0997 11.1667C53.124 11.1071 53.1475 11.0467 53.1704 10.9855C53.5439 9.9838 53.7307 8.83544 53.7307 7.5404C53.7307 6.24537 53.5439 5.08986 53.1704 4.07386C52.7968 3.05787 52.2214 2.2601 51.444 1.68056C50.6666 1.09386 49.6721 0.800505 48.4606 0.800505H43.2209V11.1667H45.0987V3.16162H48.4001C49.238 3.16162 49.9119 3.34407 50.4218 3.70897C50.9316 4.06671 51.3026 4.57471 51.5348 5.23295C51.767 5.8912 51.8831 6.66035 51.8831 7.5404C51.8831 8.42045 51.767 9.17887 51.5348 9.81566C51.3307 10.3816 51.0123 10.8319 50.5797 11.1667H53.0997Z" fill="black"/>
<path d="M37.7968 11.1667L35.1113 0.800505H33.1729L30.4875 11.1667H32.3562L34.0816 4.27778H34.2027L35.9281 11.1667H37.7968Z" fill="black"/>
<path d="M22.8486 11.1667V3.16162H27.7249V0.800505H16.0945V3.16162H20.9708V11.1667H22.8486Z" fill="black"/>
<path d="M8.00373 15.1667C8.32847 15.3583 8.67706 15.53 9.0495 15.6818L10.9576 16.4545C11.5028 16.6692 12.0101 16.9196 12.4796 17.2058C12.949 17.492 13.3276 17.8641 13.6154 18.322C13.9031 18.7799 14.047 19.3737 14.047 20.1035C14.047 20.9049 13.8804 21.6061 13.5472 22.2071C13.2141 22.8009 12.7623 23.266 12.1918 23.6023C11.6214 23.9314 10.9778 24.096 10.261 24.096C9.64516 24.096 9.06969 23.9672 8.53461 23.7096C8.00458 23.4449 7.5654 23.0442 7.2171 22.5076C6.87383 21.9638 6.67696 21.2769 6.62649 20.447H4.68807C4.74865 21.649 5.00862 22.7043 5.46798 23.613C5.93239 24.5217 6.56843 25.23 7.37611 25.738C8.18883 26.246 9.15046 26.5 10.261 26.5C11.4523 26.5 12.4644 26.2174 13.2973 25.6521C14.1353 25.0869 14.7713 24.3249 15.2055 23.3662C15.6446 22.4074 15.8642 21.3342 15.8642 20.1465C15.8642 19.1162 15.7153 18.2468 15.4175 17.5385C15.1197 16.8302 14.7411 16.2506 14.2817 15.7999C14.0466 15.5629 13.8055 15.3519 13.5583 15.1667H8.00373Z" fill="black"/>
<path d="M22.9799 15.1667V26.1136H24.8578V15.1667H22.9799Z" fill="black"/>
<path d="M32.3239 15.1667L29.488 26.1136H31.4567L33.0157 19.8889H39.2869L40.8459 26.1136H42.8146L39.9787 15.1667H38.1042L38.6955 17.5278H33.6071L34.1984 15.1667H32.3239Z" fill="black"/>
<path d="M45.23 15.1667V26.1136H47.1079V17.5278H50.5001C50.6344 17.5278 50.7661 17.5242 50.8951 17.5172L54.1649 26.1136H56.3456L52.8426 17.0502C53.062 16.9444 53.268 16.8209 53.4607 16.6799C54.0001 16.2802 54.4422 15.7758 54.7871 15.1667H45.23Z" fill="black"/>
<path d="M62.8972 15.1667V26.1136H64.7751V15.1667H62.8972Z" fill="black"/>
<path d="M5.02294 11.1667H10.3807L13.7294 15.1667H8.0367L5.02294 11.1667Z" fill="black"/>
<path d="M21.0963 11.1667H22.7706L24.7798 15.1667H23.1055L21.0963 11.1667Z" fill="black"/>
<path d="M30.4725 11.1667H32.1468L34.156 15.1667H32.4817L30.4725 11.1667Z" fill="black"/>
<path d="M36.1651 11.1667H37.8395L39.8486 15.1667H38.1743L36.1651 11.1667Z" fill="black"/>
<path d="M60.945 11.1667H62.6193L64.6284 15.1667H62.9541L60.945 11.1667Z" fill="black"/>
<path d="M43.1972 11.1667H45.2064L47.5505 15.1667H45.2064L43.1972 11.1667Z" fill="black"/>
<path d="M50.5642 11.1667H53.0853L54.7919 15.1667H52.9083L50.5642 11.1667Z" fill="black"/>
</svg>
