<svg width="201" height="150" viewBox="0 0 201 150" fill="none" xmlns="http://www.w3.org/2000/svg">
<path d="M138.882 90L137.687 86.4L137.09 82.8V78L138.882 75L142.465 71.4L145.452 69L153.217 68.4L156.8 70.8L159.787 73.8L162.176 78V83.4L160.981 87.6L158.592 91.2L155.009 93.6L153.217 94.2L146.647 94.8L142.465 93L138.882 90Z" fill="#3D3BFF"/>
<path d="M126.339 116.4V109.8L128.131 105L131.714 101.4L134.701 98.4L138.284 95.4L140.674 94.2L143.66 95.4L147.244 97.2H152.619L156.203 95.4L158.592 93.6L161.579 96L164.565 98.4L167.552 101.4L169.941 105L171.733 108L172.927 111.6V115.8L126.339 116.4Z" fill="#3D3BFF"/>
<path d="M159.787 93C160.265 92.52 161.579 90.4 162.176 89.4L164.565 85.8L168.149 82.2L171.135 83.4L173.525 84.6L177.108 85.2L180.692 84.6L183.679 83.4L185.47 82.2L189.054 83.4L192.638 86.4L195.624 89.4L198.014 91.8L199.208 94.8L200.403 98.4L201 103.8L171.733 104.4L169.941 101.4L167.552 98.4L164.565 95.4L162.176 93.6L159.787 93Z" fill="#3D3BFF"/>
<path d="M173.525 56.6938H178.9C179.378 56.6938 181.09 57.6979 181.887 58.2L185.47 60.6L187.86 64.2L189.054 67.2L189.651 72.6L187.86 76.8L185.47 79.8L183.081 82.2L178.303 82.8H172.927L169.344 80.4L166.357 77.4L164.565 73.8L163.968 66.6L166.357 62.4L170.538 58.2L173.525 56.6938Z" fill="#3D3BFF"/>
<path d="M47.4963 97.2H54.6637L58.2475 95.4L61.2339 93.6L63.6231 90L64.2204 85.8V81.6L63.6231 78.6L61.2339 75.6L58.2475 73.2L55.261 71.4H48.6908L46.3017 72.6L43.3152 74.4L40.9261 76.8L39.7315 79.2L38.5369 83.4L39.1342 88.2L41.5234 91.8L43.9125 94.2L47.4963 97.2Z" fill="#3D3BFF"/>
<path d="M27.7857 118.2V114.6L28.9803 111L31.3694 107.4L33.1613 105L34.9532 103.2L36.745 101.4L39.1342 99L42.1206 97.8H45.1071L46.899 99L48.6908 99.6H51.6773H54.0665L56.4556 98.4L58.8448 97.2H60.6367L64.2204 99L66.6096 101.4L68.9987 103.8L71.3879 106.8L73.1798 109.8L74.3743 112.8L74.9716 117.6L27.7857 118.2Z" fill="#3D3BFF"/>
<path d="M0.310303 103.8H31.3694L33.1613 101.4L35.5504 99L37.9396 97.2L41.5234 96L40.3288 94.8L39.1342 92.4L37.9396 90L36.745 88.2V85.8L35.5504 84.6L33.7586 82.8H30.7721L28.9803 84.6L26.5911 85.2H24.2019H21.8128L20.0209 84.6L17.6317 83.4L16.4371 82.8H14.6453L12.2561 84L9.26966 85.8L6.8805 88.8L3.89405 92.4L1.50488 96L0.310303 100.2V103.8Z" fill="#3D3BFF"/>
<path d="M25.9938 82.8L28.9803 81.6L31.3694 79.8L33.7586 78L35.5504 75.6L36.745 72.6V68.4L36.1477 65.4L34.9532 62.4L33.1613 60L31.3694 58.8L28.383 57H21.8128L18.8263 57.6L17.6317 58.8L14.6453 61.2L12.8534 64.2L11.6588 66.6L11.0615 69.6V72.6L12.2561 75.6L14.6453 79.2L17.0344 81.6L20.0209 82.8H25.9938Z" fill="#3D3BFF"/>
<path d="M72.5825 69.6H128.728L128.131 64.2L127.533 61.2L125.741 58.8L123.949 55.8L122.158 54L119.171 51L116.185 48.6L113.796 46.2L110.809 45L107.225 46.8L104.836 48L100.655 48.6L97.0714 47.4L94.0849 46.2L90.5012 45L86.3202 47.4L82.7364 50.4L79.75 53.4L77.3608 57L75.5689 61.2L73.1798 66L72.5825 69.6Z" fill="#3D3BFF"/>
<path d="M96.4741 45H105.433L108.42 43.2L110.212 41.4L112.601 39L114.99 34.8V27L113.198 22.8L110.212 19.2L106.628 16.8L104.239 15.6H95.8768L92.8904 17.4L89.9039 19.8L86.9174 22.8L85.7229 26.4V35.4L88.112 39.6L91.0985 42L94.6822 44.4L96.4741 45Z" fill="#3D3BFF"/>
<path d="M20.0209 54.6H24.2019V8.4L25.3965 6L27.1884 4.2H30.1748H172.927L174.719 5.4L175.914 6.6L177.108 7.8V9.6L177.706 55.2H181.887V7.8L180.692 6L178.9 3.6L177.108 1.8L174.122 0.6L27.7857 0L24.7992 0.6L23.0073 2.4L20.6182 4.8L19.4236 7.8L20.0209 54.6Z" fill="#3D3BFF"/>
<path d="M66.6096 84.6L66.0123 88.2H135.895L135.298 84L66.6096 84.6Z" fill="#3D3BFF"/>
<path d="M129.325 101.4H68.9987L72.5825 105H86.9174H90.5012H126.339L129.325 101.4Z" fill="#3D3BFF"/>
<path d="M86.9174 105L88.7093 112.8L88.112 124.2L86.9174 131.4H63.0258L60.0394 133.2L56.4556 135.6L53.4692 138.6L51.08 142.2L49.8854 145.8V150H150.828V144L149.633 141L147.841 138L144.855 135L141.271 132.6L139.479 132H114.393L113.198 124.2V114L114.393 105.6H110.809L109.614 114V123L111.406 129L112.004 132.6L89.3066 132L91.0985 125.4L91.6958 112.2L90.5012 105H86.9174Z" fill="#3D3BFF"/>
</svg>
