<svg width="161" height="150" viewBox="0 0 161 150" fill="none" xmlns="http://www.w3.org/2000/svg">
<path d="M120.217 132.373V141.359H137.843L141.991 139.977L145.101 138.94L148.558 137.212L152.014 134.101L153.742 132.373L156.507 128.917L157.889 126.152L159.272 123.387L160.309 120.622L161 116.129V94.3548H152.014V115.783L151.668 118.203L150.631 120.276L149.594 123.041L147.866 125.115L146.138 127.189L143.373 129.263L141.645 129.954L137.498 131.682L134.733 132.373H120.217Z" fill="#3D3BFF"/>
<path d="M98.4424 145.507L99.1337 146.889L101.207 148.618L103.627 149.654H106.392L108.465 148.618L110.194 146.198L111.23 144.124V125.461H136.806L139.226 124.77L141.3 123.733L143.373 120.968L144.756 118.894L145.793 115.783V81.9124L144.756 79.4931L143.373 77.4194L141.645 76.0369L138.88 73.9631L136.115 72.5806L130.585 72.9263L126.783 75L124.364 77.0737L122.29 81.5668V110.253H103.281L101.553 110.945L99.8249 111.982L98.4424 113.364L97.4055 115.438L98.4424 145.507Z" fill="#3D3BFF"/>
<path d="M134.041 44.2396H136.806L138.535 44.9309L140.608 45.9677L142.336 47.6959L143.719 49.424L145.101 51.4977L145.793 53.917V59.1014L144.756 61.8664L143.373 63.9401L141.3 66.0138L138.189 67.3963L135.77 68.0876H131.968L127.82 66.7051L125.401 64.6313L123.673 61.8664L122.29 59.447L121.945 57.3733L122.29 52.8802L123.327 50.1152L125.055 47.6959L127.475 45.9677L129.894 44.9309L131.968 44.2396H134.041Z" fill="#3D3BFF"/>
<path d="M48.6728 94.7005H115.032L115.378 105.415H48.6728V94.7005Z" fill="#3D3BFF"/>
<path d="M77.0138 111.982H84.2719L84.9631 138.94H77.0138V111.982Z" fill="#3D3BFF"/>
<path d="M50.4009 144.124L52.129 146.889L54.5484 149.309L58.0046 150L60.7696 149.309L63.5346 145.507L64.2258 115.783L62.8433 113.018L61.1152 111.982L59.7327 110.945L58.0046 109.908L39.341 110.253V81.2212L37.6129 78.1106L35.8848 76.3825C35.424 75.8064 34.4332 74.6544 34.1567 74.6544C33.8802 74.6544 32.4286 73.9631 31.7373 73.6175L24.8249 72.9263L22.0599 73.9631L19.2949 76.0369L17.2212 78.4562L15.8387 81.5668L15.4931 115.783L16.53 118.548L17.5668 120.276L19.2949 122.35L21.7143 124.078L25.5161 125.115H50.4009V144.124Z" fill="#3D3BFF"/>
<path d="M0.97697 94.7005H9.96315V116.82L10.6544 119.585L11.6913 122.696L14.4562 125.806L17.5668 128.917L21.3687 130.991L24.8249 132.373H41.4148V141.359H24.4793L22.0599 140.668L18.2581 139.631L14.4562 137.558L10.6544 134.447L7.19817 131.336L5.12444 127.88L2.70508 123.387L1.32259 119.24L0.631348 115.438L0.97697 94.7005Z" fill="#3D3BFF"/>
<path d="M25.1705 68.0876H30.3549L33.1198 67.0507L35.1936 65.3226L36.9217 63.2488L38.6498 60.8295L39.6866 57.7189L39.341 52.8802L37.9585 49.7696L36.2304 47.6959L33.4655 45.2765L29.6636 43.894H24.1337L21.3687 45.2765L19.2949 47.3502L16.8756 49.7696L15.8387 52.5346L15.4931 59.1014L16.8756 61.8664L19.2949 64.977L21.0231 66.3595L25.1705 68.0876Z" fill="#3D3BFF"/>
<path fill-rule="evenodd" clip-rule="evenodd" d="M45.9078 54.2627L51.0922 43.5484L47.2903 40.7834L44.5254 38.0184L41.7604 33.871L39.6866 28.6866V19.3548L40.7235 14.8618L44.1797 10.3687L47.9816 6.91244L52.4747 3.80184L57.659 1.38249L63.5346 0.345622L69.0645 0L75.2857 0.345622L81.5069 1.38249L86.6913 4.14747L91.1843 7.25806L94.6406 11.0599L98.0968 15.8986L99.8249 22.1198L99.1337 27.9954L96.7143 34.9078L93.9493 38.3641L90.1475 41.4747L84.6175 45.2765L78.3963 47.0046L72.1751 49.424L59.0415 52.8802L52.8203 53.917L45.9078 54.2627ZM62.4977 47.6959L53.5115 49.7696L54.894 45.9677L56.9678 41.4747L53.8572 40.0922L51.0922 38.0184L47.2903 34.2166L44.1797 29.0323L43.1429 25.576L43.4885 21.0829L44.871 16.5899L47.636 13.1336L50.0553 10.3687L52.4747 8.64055L57.3134 5.87558L63.5346 4.14747H74.5945L79.0876 5.52995L83.235 7.25806L87.7281 10.023L91.1843 13.4793L93.9493 16.5899L95.3318 20.0461V25.2304L94.6406 28.6866L91.8756 33.871L88.4194 38.0184L82.1982 41.4747L75.6313 44.2396L68.3733 45.9677L62.4977 47.6959Z" fill="#3D3BFF"/>
<path d="M109.157 58.7558L112.959 66.7051L108.811 66.3595L103.627 65.3226L100.862 64.977L96.3687 63.5945L91.8756 62.212L88.765 60.8295L83.5807 59.447L80.1244 57.0276L77.7051 54.2627L75.6313 51.8433L79.0876 49.424L82.1982 52.8802L86 55.6452L89.1106 56.682L93.9493 58.7558L98.4424 60.1382L106.392 61.8664L103.627 56.682L107.083 54.6083L110.194 52.1889L112.267 49.7696L113.304 45.9677V41.4747L110.539 37.3272L107.774 34.9078L104.664 32.8341L101.553 31.4516L102.59 27.9954L105.7 28.6866L108.811 30.4147L111.576 32.1429L113.304 34.2166L115.724 38.0184L117.106 40.7834L117.452 43.2028V47.0046L115.032 52.1889L112.959 54.9539L109.157 58.7558Z" fill="#3D3BFF"/>
</svg>
