<svg width="192" height="150" viewBox="0 0 192 150" fill="none" xmlns="http://www.w3.org/2000/svg">
<path d="M21.2308 67.8462H92.3077L93.6923 68.7692L94.1539 70.1538V72L93.2308 72.9231L91.8462 73.8462L22.1539 74.3077L21.2308 73.3846L20.3077 72.4615L19.8462 71.5385L20.3077 69.6923L21.2308 67.8462Z" fill="#3D3BFF"/>
<path d="M22.1539 35.0769L21.2308 34.6154L20.3077 33.2308V31.3846L20.7692 30L22.1539 29.0769H134.384L135.692 29.5385L136.154 30.9231V32.7692L135.692 34.1538L134.308 35.0769H22.1539Z" fill="#3D3BFF"/>
<path d="M21.6923 54.4615L20.7692 53.5385L19.8462 52.6154V50.3077L20.7692 49.3846L21.6923 48.9231H106.154L107.077 50.3077V52.6154L105.692 54L103.385 54.9231L21.6923 54.4615Z" fill="#3D3BFF"/>
<path fill-rule="evenodd" clip-rule="evenodd" d="M36 138.462L38.3077 141.231L40.1539 143.077H42.4616L45.6923 142.154L67.8462 116.769L73.3846 121.385H129.231L138.923 131.538L145.385 139.846L150.462 146.769L155.077 150H158.769L161.077 147.692L162.923 146.308L163.385 121.385H183.231L186.923 118.615L190.615 114.462L192 111.231V42L189.692 37.8462L186.923 36.4615L182.308 34.1538H156V9.69231L153.231 6L150.923 2.76923L147.692 0.923077L144.923 0H12.9231L10.1539 0.923077L5.53848 3.23077L2.30771 6.46154L0.923096 11.0769V94.1538V98.3077L3.69233 101.538L6.46156 103.846L8.76925 105.231L11.0769 106.154L36.4616 106.615L36 138.462ZM42.4616 102.923L42.9231 137.077L74.3077 100.154H143.538L145.846 98.7692L148.154 96.4615L149.538 94.1538L150 12.4615L148.154 10.1538L146.308 7.84615L144 6.46154H13.8462L11.0769 7.38462L8.76925 8.76923L6.9231 11.0769V94.6154L7.84617 96.4615L9.23079 98.7692L11.5385 100.154L40.1539 100.615L41.5385 101.538L42.4616 102.923ZM73.3846 111.231L76.6154 106.615H144.923L146.769 106.154L149.077 105.231L151.385 103.385L153.231 101.077L155.077 98.7692L156 96.4615V40.1538L182.308 40.6154L183.231 42L184.154 42.9231L185.538 44.3077V109.385V111.231L184.615 112.615L183.231 114.462H158.769L156.923 115.846V118.154L156 143.077L133.385 115.846L74.3077 114.462L73.3846 111.231Z" fill="#3D3BFF"/>
</svg>
