<svg width="153" height="150" viewBox="0 0 153 150" fill="none" xmlns="http://www.w3.org/2000/svg">
<path fill-rule="evenodd" clip-rule="evenodd" d="M3.00004 145.765H1.58828L0.529455 146.471L0.176514 147.882L0.529455 148.941L2.29416 150H151.588L152.647 148.941L153 147.529L152.647 146.471L151.588 145.765L136.765 145.412V73.7647L136.412 72.7059L135.706 71.6471H103.941L102.882 72.3529L102.177 73.4118V85.0588H73.5883L72.5295 85.7647L71.8236 87.1765V101.647H43.5883H42.5295L41.4706 102.353V103.765V116.471H13.2353H12.1765L11.4706 117.176L10.7647 118.235V145.765H3.00004ZM41.4706 145.412H15V121.059L41.4706 120.706V145.412ZM71.8236 145.412H45.7059V105.882H71.4706L71.8236 145.412ZM101.824 145.412H76.4118V89.6471H101.824V145.412ZM132.177 145.412H106.765V76.2353H132.177V145.412Z" fill="#3D3BFF"/>
<path fill-rule="evenodd" clip-rule="evenodd" d="M48.5295 0L52.0589 1.05882L54.8824 2.82353L56.6471 4.94118L58.4118 7.41177V10.9412L57.7059 15.5294L55.5883 18.7059L53.1177 20.4706L49.9412 21.5294H47.1177L44.6471 21.1765L41.8236 19.7647L39.353 16.9412L37.9412 14.8235L37.2353 12.3529L37.9412 8.82353L39.353 4.94118L41.8236 2.82353L45 0.705882L48.5295 0ZM51.7059 5.64706L50.2942 4.94118L47.8236 4.58824L45 4.94118L43.9412 6L42.8824 7.05882L42.1765 8.82353L41.8236 10.9412V12.3529L42.1765 13.7647L42.8824 14.8235L43.9412 15.8824L45 16.5882L46.4118 17.2941H48.1765L50.2942 16.9412L51.7059 16.2353L52.7648 15.1765L53.8236 13.4118L54.1765 11.2941V9.88235L53.4706 8.11765L52.7648 6.70588L51.7059 5.64706Z" fill="#3D3BFF"/>
<path fill-rule="evenodd" clip-rule="evenodd" d="M19.9412 101.647L23.1177 99.5294L26.6471 96.7059L31.2353 92.4706L36.1765 88.2353L39.353 84.7059C39.5883 84.3529 40.0589 83.5765 40.0589 83.2941C40.0589 83.0118 40.7648 80.8235 41.1177 79.7647L42.5295 74.8235L43.5883 71.2941L51 74.1176L51.353 75.5294L46.4118 87.1765L45.353 89.6471V92.1177L45.7059 94.5882L46.4118 96.3529L48.5295 98.1177L50.6471 98.8235L53.8236 98.4706L55.9412 97.0588L58.0589 94.5882L60.1765 90L63.7059 81.1765L66.5295 74.4706V70.2353L65.4706 67.4118L63 64.5882L57.353 61.7647L53.1177 60L47.4706 58.2353L49.5883 52.2353L50.6471 48L51 44.4706L53.8236 46.5882L56.6471 49.0588L59.1177 50.8235L61.5883 52.2353L66.1765 52.5882L68.2942 51.5294L72.1765 48.3529L76.0589 44.8235L80.6471 40.5882L84.5295 36L85.2353 33.1765L84.5295 30.7059L83.1177 28.5882L80.6471 27.1765H76.4118L70.7647 31.0588L64.4118 37.0588H63.353L55.9412 30.3529L49.9412 25.7647L48.5295 25.0588L45.7059 25.4118L41.8236 26.1176L32.6471 27.5294L27.7059 27.8824L24.1765 28.9412L21.7059 29.2941L18.5295 32.4706L16.0589 36.7059L12.5295 42.7059C12.1765 43.4118 11.4706 44.8941 11.4706 45.1765C11.4706 45.4588 11.7059 47.6471 11.8236 48.7059L13.2353 50.8235L15.353 52.2353L20.2942 52.5882L22.7647 51.1765L24.8824 48.7059L26.6471 45.1765L28.7647 40.9412L38.2942 39.8824L35.1177 50.4706L30.5295 66.3529L27 76.9412L23.1177 81.8824L15.7059 88.2353L11.1177 93.5294L10.7647 96L11.1177 98.4706L12.1765 100.235L14.2942 102C15.353 102.235 17.4706 102.635 17.4706 102.353C17.4706 102.071 19.1177 101.765 19.9412 101.647ZM16.4118 98.1177L15 96.7059V95.6471L15.7059 94.5882L17.4706 93.1765L30.8824 79.4118L42.5295 39.8824L42.8824 37.7647L42.1765 36L40.4118 35.2941L25.9412 38.1176L20.2942 47.2941L18.8824 48.3529H17.1177L16.0589 46.5882V44.8235L22.4118 34.2353L24.8824 32.4706L44.2942 30L47.8236 29.2941L49.2353 30.3529L61.5883 40.5882L64.0589 41.6471L66.5295 40.9412L77.4706 31.0588L79.5883 31.4118L80.6471 32.4706V33.8824L76.0589 38.8235L65.8236 47.6471L62.2942 47.2941L52.0589 39.1765L49.9412 38.8235L48.1765 39.5294L45 50.4706L42.8824 56.8235V59.2941L43.5883 61.0588L58.0589 66.7059L60.1765 67.7647L62.2942 69.5294V73.7647L54.1765 92.1177L53.1177 93.5294L51.353 94.2353L49.9412 93.8824L49.2353 91.7647L49.5883 90L55.2353 76.5882L55.9412 74.4706V73.0588L55.2353 71.6471L45.7059 67.0588L43.5883 66.3529H41.8236L40.4118 67.4118L36.8824 79.0588L35.8236 82.5882L19.2353 97.4118L17.8236 98.1177H16.4118Z" fill="#3D3BFF"/>
</svg>
