<svg width="73" height="73" viewBox="0 0 73 73" fill="none" xmlns="http://www.w3.org/2000/svg">
<path d="M6.86218 46.9885H5.9789C3.45627 46.9481 2.42298 47.3124 1.5625 48.7461V68.7382C2.55149 70.9013 3.57085 71.4412 5.9789 71.5942H68.471C70.3972 70.9987 71.069 70.3643 71.5625 68.7382V49.4052C70.6742 47.6066 69.7336 47.1595 67.5877 46.9885H66.042M6.86218 46.9885C4.77878 41.974 4.63945 39.1821 4.65398 33.8067M6.86218 46.9885H20.553M4.65398 33.8067C4.59529 29.4303 4.93676 26.9795 6.42054 22.6024C7.52431 19.6872 10.1745 16.0116 10.1745 16.0116M4.65398 33.8067L19.2921 33.9072M10.1745 16.0116C10.1745 16.0116 14.7053 10.1381 18.5657 7.22381C23.1723 4.53503 25.7227 3.48764 30.2691 2.17085C31.3099 2.01079 32.2537 1.8839 33.1398 1.79036M10.1745 16.0116L21.6571 18.8674M68.6918 34.2461C68.976 30.3662 68.7757 28.2522 67.5877 24.5796C66.421 21.0212 65.4568 18.9065 63.5993 16.0116M68.6918 34.2461C68.6578 39.2731 68.025 42.0629 66.042 46.9885M68.6918 34.2461L53.4552 34.1416M66.042 46.9885H52.3511M21.6571 18.8674C25.665 18.8375 31.336 18.7878 36.6729 18.7276M21.6571 18.8674C22.5454 14.8639 23.2829 12.8537 25.1903 9.86C27.8093 5.96018 29.5299 4.20053 33.1398 1.79036M21.6571 18.8674C20.4625 21.4849 20.069 23.0729 19.8906 26.1173C19.6335 29.1979 19.3729 31.4821 19.2921 33.9072M36.6729 18.7276C44.3719 18.6408 51.3757 18.5319 51.6887 18.4281M36.6729 18.7276V1.59428M36.6729 18.7276V34.0264M51.6887 18.4281C52.2187 18.2523 59.8499 16.7438 63.5993 16.0116M51.6887 18.4281C50.6155 14.0587 49.7652 11.6811 46.8306 7.88276C45.0493 5.25359 43.8144 3.92733 41.0893 1.91297M51.6887 18.4281C52.974 21.5227 53.0459 23.1577 53.4552 26.1173C53.7621 29.2463 53.6521 31.002 53.4562 34.1263L53.4552 34.1416M63.5993 16.0116C63.3294 15.5909 63.0407 15.1538 62.7297 14.6934C59.2238 10.6405 56.9834 8.66892 52.3511 5.90564C48.8136 3.95999 46.7292 3.1573 42.8559 2.17085C42.2358 2.07218 41.6499 1.98624 41.0893 1.91297M36.6729 1.59428C35.5359 1.59225 34.3957 1.6578 33.1398 1.79036M36.6729 1.59428C38.0789 1.5968 39.4802 1.70267 41.0893 1.91297M36.6729 34.0264V46.9885M36.6729 34.0264L19.2921 33.9072M36.6729 34.0264L53.4552 34.1416M36.6729 46.9885H20.553M36.6729 46.9885H52.3511M19.2921 33.9072C19.2356 35.6022 19.267 37.366 19.4489 39.5187C19.2926 43.4544 19.7882 44.6505 20.553 46.9885M53.4552 34.1416C54.0455 37.3922 53.7096 38.3989 53.4552 40.6171C53.3103 43.5485 52.9168 44.7086 52.3511 46.9885M9.73285 54.0184L13.7076 64.344L17.4616 54.0184L21.2155 63.685L24.7486 54.0184M29.3858 54.0184L33.1398 64.344L36.6729 54.0184L40.206 63.685L44.1808 54.0184M48.818 54.0184L52.3511 63.685L56.1051 54.0184L59.4174 63.685L62.9505 54.0184" stroke="#3D3BFF" stroke-width="2.1164"/>
</svg>
