<svg width="73" height="73" viewBox="0 0 73 73" fill="none" xmlns="http://www.w3.org/2000/svg">
<path d="M12.237 39.6326L4.02584 39.4479L2.99945 39.6326L2.38361 40.1867L1.5625 41.1102V47.9439L1.97306 48.8674L2.79417 49.4215L4.02584 49.6062H24.3484M61.2986 39.6326H69.5097C69.7834 39.6941 70.3719 39.8173 70.5361 39.8173C70.7003 39.8173 71.0151 40.1867 71.1519 40.3714L71.5625 41.6642L71.3572 47.3898L71.1519 48.3133L70.5361 49.0521L69.0992 49.6062H68.0728H60.6827M61.2986 39.6326V44.8041C58.3095 44.8041 55.5254 44.8041 52.8821 44.8041M61.2986 39.6326V19.6854L59.4511 18.3925H54.3191L52.8821 19.6854V44.8041M20.2429 34.4611H13.2634L12.237 35.5693V44.8041C15.0717 44.8041 17.7221 44.8041 20.2429 44.8041M20.2429 44.8041V26.1497L21.4745 24.6722H27.4276L28.8646 25.5956V37.6009M20.2429 44.8041C23.2726 44.8041 26.115 44.8041 28.8646 44.8041M28.8646 44.8041V37.6009M28.8646 44.8041C31.5229 44.8041 34.0946 44.8041 36.6651 44.8041M28.8646 37.6009H36.6651M36.6651 44.8041V30.0284L37.6915 28.9202H43.6446L45.0816 30.0284V34.4611M36.6651 44.8041C39.4362 44.8041 42.206 44.8041 45.0816 44.8041M45.0816 44.8041V34.4611M45.0816 44.8041C47.5785 44.8041 50.1553 44.8041 52.8821 44.8041M45.0816 34.4611H52.8821M12.237 50.345V52.3766L12.6475 54.7777L13.4687 56.8094L14.4951 59.3951L15.5214 60.688M36.6651 71.4004L34.5097 71.2157M36.6651 71.4004V49.6062M36.6651 71.4004H37.0757M60.6827 49.6062V52.9307L60.0669 55.5165L58.6299 59.2104L57.6446 60.688M60.6827 49.6062H48.6739M57.6446 60.688L56.1666 62.9043L53.0874 65.8595L48.5713 68.6299L44.671 70.4769L40.976 71.4004H37.0757M57.6446 60.688H15.5214M15.5214 60.688L16.5478 61.9809L18.1901 64.0125L21.2692 66.5983L24.3484 68.6299L27.8382 69.9228L32.3543 71.031L34.5097 71.2157M24.3484 49.6062V52.9307L24.9643 55.5165L25.5801 58.4716L26.6065 61.9809L28.2487 65.1207L30.3015 67.7065L34.5097 71.2157M24.3484 49.6062H36.6651M36.6651 49.6062H48.6739M48.6739 49.6062L48.5713 52.9307L48.1607 56.0706L47.3396 59.2104L46.108 62.3503L44.671 66.2289L43.0288 68.6299L39.9496 71.031L37.0757 71.4004M9.671 21.8094L11.4159 22.2711L12.0317 24.4875L10.3895 26.5191L7.92614 27.2579L5.66807 26.1497L5.05224 23.7487L6.07863 22.0864L7.92614 21.3476L9.671 21.8094ZM9.671 21.8094L16.7531 15.0679M16.7531 15.0679L16.1373 13.0363L16.7531 11.0046L18.3953 9.71174L21.064 10.0811L22.5009 11.5587V13.9598M16.7531 15.0679L18.8059 15.622H21.064L22.5009 13.9598M22.5009 13.9598L31.5332 18.0231M31.5332 18.0231V19.87L32.5596 21.8094L34.6124 22.0864L37.281 21.3476L37.8968 19.316L37.281 17.0996M31.5332 18.0231L34.6124 16.1761L37.281 17.0996M37.281 17.0996L44.2604 11.0046M44.2604 11.0046L43.4393 9.15765V7.86477L44.2604 6.3872L46.108 5.64841L47.5449 6.0178L48.9819 6.57189L49.803 7.86477M44.2604 11.0046L46.108 11.5587L48.1607 11.1893L49.803 9.71174V7.86477M49.803 7.86477L59.4511 4.90963M59.4511 4.90963L59.6563 2.69327L61.2986 1.76978L63.1461 1.40039L64.9936 2.32387L66.02 4.17084V5.64841L64.7883 7.12598L63.1461 7.49538L61.2986 7.12598L59.8616 6.2025L59.4511 4.90963Z" stroke="#3D3BFF" stroke-width="2.1164"/>
</svg>
