<svg width="73" height="73" viewBox="0 0 73 73" fill="none" xmlns="http://www.w3.org/2000/svg">
<path d="M60.0074 36.5086L59.563 35.7017L60.0074 35.0965L60.8963 33.8862V28.036V24.4049L60.0074 21.5807L58.6741 18.7565L57.3408 16.5375L55.7852 14.7219L54.0074 13.1081L51.3408 11.2925L48.6741 9.88041L45.563 8.67003L41.3408 7.86312L41.1185 7.45966L40.8963 6.65274L40.4519 6.24928H38.8963H37.7852V4.03026L38.8963 3.42507L39.563 2.81989L39.3408 2.01297L38.8963 1.40778L37.7852 1.20605H36.2297L34.6741 1.40778L34.0074 2.01297L33.7852 2.61816L34.2297 3.6268L35.7852 4.03026V6.24928H33.563L32.6741 6.45101L32.0074 7.0562L31.7852 7.86312H29.7852L27.1185 8.67003L23.3408 9.88041L20.0074 12.5029L15.7852 16.5375L12.8963 21.5807L12.2297 25.6153V29.6499V33.8862L12.8963 35.7017L14.3408 36.3069M60.0074 36.5086L61.1185 36.9121L65.3408 39.7363L68.2297 43.3674L70.8963 49.2176L71.563 51.8401V54.6643L60.0074 65.1542L61.1185 60.7161L62.6741 56.2781L64.4519 51.8401L65.3408 48.2089V44.9813L63.563 40.745L60.0074 36.5086ZM60.0074 36.5086L17.7852 36.9121H15.7852L15.063 36.6095M14.3408 36.3069L10.4519 37.9208L7.56299 39.7363L5.34077 42.1571L4.00743 44.9813L2.6741 49.2176L2.00743 52.4452L1.56299 54.2608L13.3408 65.5576L12.8963 61.3213L11.3408 58.2954L10.4519 55.6729L9.11854 52.4452L8.22965 48.2089V44.9813L9.11854 40.745L11.3408 39.7363L15.063 36.6095M14.3408 36.3069L15.063 36.6095M14.3408 65.5576L21.1185 68.5836L27.3408 70.3991L32.0074 71.2061H36.8963L45.3408 70.3991L51.3408 68.5836L57.3408 66.768L60.0074 65.5576M32.8963 53.2522L33.7852 56.4798L36.4519 55.0677M29.7852 51.8401L41.563 47.6037L39.7852 57.4885L34.6741 54.0591L39.7852 49.621L33.1185 53.2522L29.7852 51.8401ZM38.4519 61.7248L41.3408 61.1196L42.8963 60.3127L45.3408 58.2954L46.6741 55.0677L47.3408 50.8314L46.0074 47.2003L42.8963 44.1744L39.7852 43.1657L35.3408 42.7623L30.8963 44.1744L27.3408 47.2003L26.0074 51.8401L26.6741 55.6729L29.1185 58.9006L33.1185 61.3213L36.4519 61.7248H38.4519ZM22.4519 30.4568L24.4519 31.6671L27.3408 32.2723H46.8963L49.1185 31.6671L52.0074 29.6499L54.0074 26.8257V23.3963L52.8963 21.5807L50.8963 18.7565L47.563 17.3444H25.563L23.7852 18.353L21.3408 20.1686L19.563 23.3963V25.6153L20.0074 28.036L21.7852 29.6499L22.4519 30.4568ZM27.3408 22.9928L27.563 27.2291L29.1185 28.036L30.8963 27.2291L31.3408 25.6153L30.8963 22.9928L29.7852 21.9842H28.2297L27.3408 22.9928ZM42.0074 22.9928V26.8257L43.3408 27.6326H44.4519L45.563 26.8257L46.0074 25.6153L45.563 22.9928L44.8963 21.9842H43.3408L42.0074 22.9928Z" stroke="#3D3BFF" stroke-width="2.1164"/>
</svg>
