<svg width="67" height="67" viewBox="0 0 67 67" fill="none" xmlns="http://www.w3.org/2000/svg">
<g clip-path="url(#clip0_71_661)">
<path d="M66.275 0.0302734H-0.00842285V66.3137H66.275V0.0302734Z" fill="white"/>
<path fill-rule="evenodd" clip-rule="evenodd" d="M49.3513 33.5487C49.3513 32.3737 49.2458 31.2438 49.05 30.1592H33.4432V36.5691H42.3614C41.9773 38.6405 40.8098 40.3955 39.0547 41.5705V45.7283H44.4102C47.5436 42.8434 49.3513 38.5953 49.3513 33.5487Z" fill="#4285F4"/>
<path fill-rule="evenodd" clip-rule="evenodd" d="M33.443 49.7427C37.9171 49.7427 41.6682 48.2589 44.4099 45.7281L39.0545 41.5703C37.5707 42.5645 35.6725 43.152 33.443 43.152C29.127 43.152 25.4739 40.2371 24.1708 36.3203H18.6346V40.6137C21.3613 46.0294 26.9653 49.7427 33.443 49.7427Z" fill="#34A853"/>
<path fill-rule="evenodd" clip-rule="evenodd" d="M24.1714 36.3203C23.84 35.326 23.6517 34.264 23.6517 33.1718C23.6517 32.0796 23.84 31.0176 24.1714 30.0233V25.73H18.6352C17.5129 27.9671 16.8727 30.4979 16.8727 33.1718C16.8727 35.8458 17.5129 38.3766 18.6352 40.6137L24.1714 36.3203Z" fill="#FBBC05"/>
<path fill-rule="evenodd" clip-rule="evenodd" d="M33.443 23.1918C35.8759 23.1918 38.0603 24.0278 39.7776 25.6699L44.5304 20.917C41.6607 18.2431 37.9096 16.6011 33.443 16.6011C26.9653 16.6011 21.3613 20.3145 18.6346 25.7301L24.1708 30.0235C25.4739 26.1067 29.127 23.1918 33.443 23.1918Z" fill="#EA4335"/>
</g>
<rect x="0.6549" y="0.693108" width="64.9578" height="64.9578" rx="32.4789" stroke="#B5B5B5" stroke-width="1.32567"/>
<defs>
<clipPath id="clip0_71_661">
<rect x="-0.00793457" y="0.0302734" width="66.2834" height="66.2834" rx="33.1417" fill="white"/>
</clipPath>
</defs>
</svg>
