<svg width="98" height="35" viewBox="0 0 98 35" fill="none" xmlns="http://www.w3.org/2000/svg">
<path d="M0.796631 12.6491H89.9304L90.7793 9.91737L97.5705 17.4295L90.7793 24.9416L89.9304 22.2099H0.796631L5.88999 17.4295L0.796631 12.6491Z" fill="#B5B5B5"/>
<path d="M16.4737 7.87865C16.3533 6.43693 15.8647 5.3177 15.0082 4.52096C14.1516 3.72422 13.101 3.32585 11.8563 3.32585C10.9462 3.32585 10.1499 3.53452 9.46728 3.95186C8.7914 4.3692 8.26274 4.94305 7.8813 5.67339C7.50655 6.40374 7.31918 7.23367 7.31918 8.1632C7.31918 8.94098 7.44967 9.60967 7.71066 10.1693C7.97833 10.7194 8.31962 11.1794 8.73452 11.5494C9.14942 11.9098 9.58439 12.2086 10.0394 12.4457C10.4945 12.6733 10.9127 12.8583 11.2942 13.0006L13.3821 13.7973C13.7621 13.9387 14.1726 14.1184 14.6133 14.3363H7.49675C7.05688 13.9628 6.66309 13.5507 6.31539 13.1002C5.37853 11.8861 4.91009 10.2973 4.91009 8.33393C4.91009 6.70251 5.22127 5.27976 5.84362 4.06568C6.47266 2.84212 7.31583 1.89362 8.37316 1.22018C9.43717 0.537261 10.625 0.195801 11.9366 0.195801C13.2616 0.195801 14.4394 0.532518 15.4699 1.20595C16.5005 1.8699 17.3169 2.78046 17.9192 3.93763C18.5281 5.09481 18.8493 6.40848 18.8828 7.87865H16.4737Z" fill="black"/>
<path d="M84.0034 14.3363V3.72422H90.4678V0.594171H75.0497V3.72422H81.514V14.3363H84.0034Z" fill="black"/>
<path d="M71.1892 14.3363C71.2215 14.2573 71.2527 14.1772 71.2829 14.0961C71.7781 12.7682 72.0257 11.2458 72.0257 9.52905C72.0257 7.81226 71.7781 6.28043 71.2829 4.93356C70.7877 3.58669 70.0249 2.52911 68.9943 1.76083C67.9638 0.983056 66.6455 0.594171 65.0394 0.594171H58.0932V14.3363H60.5826V3.72422H64.9591C66.0699 3.72422 66.9633 3.96609 67.6392 4.44983C68.3151 4.92408 68.8069 5.59751 69.1148 6.47013C69.4226 7.34275 69.5765 8.36239 69.5765 9.52905C69.5765 10.6957 69.4226 11.7011 69.1148 12.5453C68.8441 13.2955 68.422 13.8925 67.8485 14.3363H71.1892Z" fill="black"/>
<path d="M50.9027 14.3363L47.3426 0.594171H44.773L41.2129 14.3363H43.6903L45.9775 5.20388H46.1381L48.4253 14.3363H50.9027Z" fill="black"/>
<path d="M31.0863 14.3363V3.72422H37.5507V0.594171H22.1326V3.72422H28.5969V14.3363H31.0863Z" fill="black"/>
<path d="M11.4069 19.6389C11.8374 19.893 12.2995 20.1207 12.7933 20.3219L15.3228 21.3462C16.0455 21.6308 16.7181 21.9628 17.3404 22.3422C17.9628 22.7216 18.4647 23.2148 18.8461 23.8218C19.2275 24.4289 19.4183 25.2161 19.4183 26.1836C19.4183 27.2459 19.1974 28.1755 18.7558 28.9722C18.3141 29.7594 17.7152 30.376 16.959 30.8218C16.2028 31.2581 15.3496 31.4762 14.3993 31.4762C13.5829 31.4762 12.82 31.3055 12.1107 30.964C11.408 30.6131 10.8259 30.0819 10.3641 29.3706C9.90906 28.6497 9.64808 27.7391 9.58116 26.6389H7.01146C7.09177 28.2324 7.4364 29.6314 8.04536 30.836C8.66102 32.0406 9.5042 32.9796 10.5749 33.653C11.6523 34.3265 12.9271 34.6632 14.3993 34.6632C15.9786 34.6632 17.3204 34.2885 18.4245 33.5392C19.5354 32.7899 20.3786 31.7798 20.9541 30.5088C21.5363 29.2378 21.8273 27.815 21.8273 26.2405C21.8273 24.8747 21.6299 23.7222 21.2351 22.7832C20.8403 21.8442 20.3384 21.0759 19.7294 20.4784C19.4178 20.1643 19.0981 19.8845 18.7704 19.6389H11.4069Z" fill="black"/>
<path d="M31.2604 19.6389V34.151H33.7498V19.6389H31.2604Z" fill="black"/>
<path d="M43.6475 19.6389L39.888 34.151H42.4978L44.5645 25.899H52.878L54.9448 34.151H57.5546L53.7951 19.6389H51.3102L52.0941 22.769H45.3485L46.1324 19.6389H43.6475Z" fill="black"/>
<path d="M60.7567 19.6389V34.151H63.2461V22.769H67.743C67.9211 22.769 68.0957 22.7643 68.2666 22.7549L72.6014 34.151H75.4923L70.8484 22.1359C71.1392 21.9956 71.4124 21.832 71.6678 21.645C72.3829 21.1151 72.969 20.4464 73.4262 19.6389H60.7567Z" fill="black"/>
<path d="M84.1775 19.6389V34.151H86.6669V19.6389H84.1775Z" fill="black"/>
<path d="M7.45538 14.3363H14.558L18.9972 19.6389H11.4506L7.45538 14.3363Z" fill="black"/>
<path d="M28.7634 14.3363H30.983L33.6465 19.6389H31.4269L28.7634 14.3363Z" fill="black"/>
<path d="M41.1931 14.3363H43.4126L46.0761 19.6389H43.8565L41.1931 14.3363Z" fill="black"/>
<path d="M48.7396 14.3363H50.9592L53.6227 19.6389H51.4031L48.7396 14.3363Z" fill="black"/>
<path d="M81.5895 14.3363H83.8091L86.4725 19.6389H84.253L81.5895 14.3363Z" fill="black"/>
<path d="M58.0619 14.3363H60.7254L63.8328 19.6389H60.7254L58.0619 14.3363Z" fill="black"/>
<path d="M67.828 14.3363H71.1702L73.4325 19.6389H70.9355L67.828 14.3363Z" fill="black"/>
</svg>
