<svg width="67" height="67" viewBox="0 0 67 67" fill="none" xmlns="http://www.w3.org/2000/svg">
<g clip-path="url(#clip0_71_668)">
<rect x="0.092041" y="0.0302734" width="66.2834" height="66.2834" fill="#0077FF"/>
<path d="M34.8618 44.7715C22.4062 44.7715 15.3018 36.0631 15.0057 21.5723H21.2449C21.4498 32.2081 26.0495 36.7133 29.6928 37.6422V21.5723H35.5677V30.7451C39.1655 30.3503 42.9454 26.1703 44.2206 21.5723H50.0954C49.6149 23.9569 48.6571 26.2148 47.2818 28.2048C45.9066 30.1947 44.1435 31.8738 42.1029 33.137C44.3807 34.2913 46.3926 35.9251 48.0058 37.9306C49.619 39.9361 50.7969 42.2677 51.4616 44.7715H44.9948C44.398 42.5967 43.1851 40.65 41.5082 39.1752C39.8312 37.7004 37.7647 36.7632 35.5677 36.4811V44.7715H34.8618Z" fill="white"/>
</g>
<rect x="0.754387" y="0.693108" width="64.9578" height="64.9578" rx="32.4789" stroke="#B5B5B5" stroke-width="1.32567"/>
<defs>
<clipPath id="clip0_71_668">
<rect x="0.0915527" y="0.0302734" width="66.2834" height="66.2834" rx="33.1417" fill="white"/>
</clipPath>
</defs>
</svg>
