<svg width="18" height="18" viewBox="0 0 18 18" fill="none" xmlns="http://www.w3.org/2000/svg">
<rect x="0.939941" y="0.930176" width="16.2257" height="16.2257" rx="8.11287" fill="#3D3BFF"/>
<path d="M8.14521 4.6785C8.43093 3.79915 9.67497 3.79915 9.96069 4.67851L10.4458 6.1716C10.5736 6.56486 10.9401 6.83111 11.3536 6.83111H12.9235C13.8481 6.83111 14.2325 8.01427 13.4845 8.55774L12.2144 9.48052C11.8799 9.72357 11.7399 10.1544 11.8677 10.5476L12.3528 12.0407C12.6385 12.9201 11.6321 13.6513 10.8841 13.1078L9.61397 12.1851C9.27944 11.942 8.82646 11.942 8.49193 12.1851L7.22183 13.1078C6.47381 13.6513 5.46736 12.9201 5.75308 12.0407L6.23821 10.5476C6.36599 10.1544 6.22601 9.72357 5.89149 9.48052L4.62139 8.55774C3.87337 8.01427 4.2578 6.83111 5.1824 6.83111H6.75233C7.16583 6.83111 7.5323 6.56486 7.66007 6.1716L8.14521 4.6785Z" fill="white"/>
</svg>
